<!-- <svg xmlns="http://www.w3.org/2000/svg" viewBox="0 0 120 120" width="50" height="50">
  <path d="M25,20 L50,20 L30,90 L5,90 Z" fill="#06162c" />
  <path d="M57,20 L82,20 L62,90 L37,90 Z" fill="#06162c" opacity="0.85" />
  <path d="M89,20 L120,55 L79,90 L65,90 L85,55 L64,20 Z" fill="#02c366" />
</svg> -->
<svg xmlns="http://www.w3.org/2000/svg" viewBox="0 0 120 130" width="50" height="54">
  <path d="M25,15 L50,15 L30,105 L5,105 Z" fill="#06162c" />
  <path d="M57,15 L82,15 L62,105 L37,105 Z" fill="#06162c" opacity="0.85" />
  <path d="M89,15 L120,55 L79,105 L65,105 L85,55 L64,15 Z" fill="#02c366" />
</svg>
